<svg xmlns="http://www.w3.org/2000/svg" xmlns:xlink="http://www.w3.org/1999/xlink" id="svg" width="400" height="400" version="1.1" viewBox="0 0 400 400"><g id="svgg"><path id="path0" fill="#000" fill-rule="evenodd" stroke="none"/><path id="path1" fill="#055" fill-rule="evenodd" stroke="none"/><path id="path2" fill="#00d1b2" fill-rule="evenodd" stroke="none" d="M146.303 50.694 C 109.241 87.753,96.462 100.765,96.624 101.276 C 96.925 102.225,96.394 104.844,95.956 104.573 C 95.760 104.452,95.600 105.711,95.600 107.376 C 95.600 109.125,95.431 110.400,95.200 110.400 C 94.969 110.400,94.800 111.667,94.800 113.400 C 94.800 115.133,94.631 116.400,94.400 116.400 C 94.171 116.400,94.000 117.600,94.000 119.200 C 94.000 121.749,93.582 122.775,93.063 121.500 C 92.951 121.225,92.965 122.421,93.094 124.159 C 93.277 126.642,93.204 127.412,92.752 127.759 C 92.346 128.070,92.180 129.024,92.188 131.000 C 92.196 132.955,92.056 133.772,91.724 133.708 C 91.375 133.641,91.310 134.359,91.481 136.399 C 91.676 138.720,91.609 139.222,91.076 139.426 C 90.549 139.628,90.477 140.107,90.668 142.146 C 90.851 144.112,90.769 144.727,90.268 145.144 C 89.762 145.563,89.684 146.177,89.875 148.225 C 90.078 150.399,90.012 150.820,89.435 151.042 C 88.865 151.261,88.798 151.643,89.018 153.408 C 89.304 155.695,88.983 157.361,88.334 156.959 C 88.063 156.792,88.019 157.568,88.203 159.286 C 88.424 161.354,88.355 161.988,87.854 162.489 C 87.393 162.949,87.252 163.808,87.315 165.769 C 87.376 167.682,87.244 168.523,86.842 168.772 C 86.440 169.022,86.356 169.563,86.541 170.718 C 86.833 172.547,86.474 174.893,85.951 174.570 C 85.758 174.450,85.600 175.713,85.600 177.376 C 85.600 179.125,85.431 180.400,85.200 180.400 C 84.969 180.400,84.800 181.667,84.800 183.400 C 84.800 185.133,84.631 186.400,84.400 186.400 C 84.171 186.400,84.000 187.600,84.000 189.200 C 84.000 191.749,83.582 192.775,83.063 191.500 C 82.951 191.225,82.965 192.421,83.094 194.159 C 83.277 196.642,83.204 197.412,82.752 197.759 C 82.346 198.070,82.180 199.024,82.188 201.000 C 82.196 202.955,82.056 203.772,81.724 203.708 C 81.375 203.641,81.310 204.359,81.481 206.399 C 81.676 208.720,81.609 209.222,81.076 209.426 C 80.549 209.628,80.477 210.107,80.668 212.146 C 80.854 214.144,80.773 214.724,80.244 215.164 C 79.707 215.609,79.636 216.166,79.849 218.245 C 80.071 220.411,80.009 220.822,79.432 221.043 C 78.866 221.260,78.798 221.646,79.018 223.408 C 79.304 225.695,78.983 227.361,78.334 226.959 C 78.063 226.792,78.019 227.568,78.203 229.286 C 78.424 231.354,78.355 231.988,77.854 232.489 C 77.393 232.949,77.252 233.808,77.315 235.769 C 77.376 237.682,77.244 238.523,76.842 238.772 C 76.440 239.022,76.356 239.563,76.541 240.718 C 76.830 242.532,76.476 244.894,75.961 244.576 C 75.773 244.460,75.632 245.672,75.647 247.270 C 75.664 249.039,75.503 250.232,75.237 250.321 C 74.973 250.409,74.800 251.643,74.800 253.433 C 74.800 255.144,74.631 256.400,74.400 256.400 C 74.171 256.400,74.000 257.600,74.000 259.200 C 74.000 261.319,73.865 262.000,73.446 262.000 C 73.008 262.000,72.937 262.558,73.106 264.662 C 73.269 266.691,73.184 267.428,72.748 267.762 C 72.346 268.070,72.180 269.033,72.188 271.000 C 72.197 273.032,72.063 273.773,71.700 273.700 C 71.425 273.645,71.200 273.971,71.200 274.424 C 71.200 274.877,71.337 275.162,71.505 275.059 C 71.673 274.955,99.782 302.844,133.971 337.035 C 197.134 400.202,198.400 401.417,198.400 398.868 C 198.400 398.685,198.895 398.280,199.500 397.968 C 200.105 397.655,200.949 397.085,201.375 396.700 C 201.802 396.315,202.387 396.000,202.675 396.000 C 202.964 396.000,203.200 395.850,203.200 395.668 C 203.200 395.485,203.695 395.088,204.300 394.785 C 204.905 394.482,205.716 393.973,206.103 393.653 C 206.489 393.333,207.139 392.875,207.546 392.636 C 209.445 391.518,211.813 389.847,211.933 389.540 C 212.007 389.353,212.288 389.200,212.558 389.200 C 212.828 389.200,213.398 388.885,213.825 388.500 C 214.251 388.115,215.095 387.545,215.700 387.232 C 216.305 386.920,216.800 386.515,216.800 386.332 C 216.800 386.150,217.120 386.000,217.512 386.000 C 217.903 386.000,218.483 385.640,218.800 385.200 C 219.117 384.760,219.614 384.400,219.905 384.400 C 220.196 384.400,220.820 384.040,221.292 383.600 C 221.764 383.160,222.387 382.800,222.675 382.800 C 222.964 382.800,223.200 382.658,223.200 382.485 C 223.200 382.103,227.447 379.200,228.005 379.200 C 228.222 379.200,228.400 379.050,228.400 378.868 C 228.400 378.685,228.895 378.280,229.500 377.968 C 230.105 377.655,230.949 377.085,231.375 376.700 C 231.802 376.315,232.387 376.000,232.675 376.000 C 232.964 376.000,233.200 375.850,233.200 375.668 C 233.200 375.485,233.695 375.080,234.300 374.768 C 234.905 374.456,235.490 374.086,235.600 373.946 C 235.710 373.805,236.356 373.355,237.035 372.945 C 238.945 371.794,241.778 369.907,242.000 369.640 C 242.110 369.507,242.695 369.144,243.300 368.832 C 243.905 368.520,244.400 368.115,244.400 367.932 C 244.400 367.750,244.636 367.600,244.925 367.600 C 245.213 367.600,245.798 367.285,246.225 366.900 C 246.651 366.515,247.495 365.945,248.100 365.632 C 248.705 365.320,249.200 364.915,249.200 364.732 C 249.200 364.550,249.470 364.400,249.800 364.400 C 250.130 364.400,250.760 364.040,251.200 363.600 C 251.640 363.160,252.270 362.800,252.600 362.800 C 252.930 362.800,253.200 362.645,253.200 362.457 C 253.200 362.053,257.400 359.200,257.994 359.200 C 258.217 359.200,258.400 359.050,258.400 358.868 C 258.400 358.685,258.895 358.280,259.500 357.968 C 260.105 357.655,260.949 357.085,261.375 356.700 C 261.802 356.315,262.387 356.000,262.675 356.000 C 262.964 356.000,263.200 355.850,263.200 355.668 C 263.200 355.485,263.695 355.080,264.300 354.768 C 264.905 354.456,265.490 354.086,265.600 353.946 C 265.710 353.805,266.356 353.355,267.035 352.945 C 268.945 351.794,271.778 349.907,272.000 349.640 C 272.110 349.507,272.695 349.144,273.300 348.832 C 273.905 348.520,274.400 348.115,274.400 347.932 C 274.400 347.750,274.636 347.600,274.925 347.600 C 275.213 347.600,275.798 347.285,276.225 346.900 C 276.651 346.515,277.495 345.945,278.100 345.632 C 278.705 345.320,279.200 344.915,279.200 344.732 C 279.200 344.550,279.470 344.400,279.800 344.400 C 280.130 344.400,280.760 344.040,281.200 343.600 C 281.640 343.160,282.270 342.800,282.600 342.800 C 282.930 342.800,283.200 342.645,283.200 342.457 C 283.200 342.129,287.346 339.200,287.811 339.200 C 287.933 339.200,288.420 338.840,288.892 338.400 C 289.364 337.960,289.987 337.600,290.275 337.600 C 290.564 337.600,290.800 337.420,290.800 337.200 C 290.800 336.980,291.070 336.800,291.400 336.800 C 291.730 336.800,292.000 336.620,292.000 336.400 C 292.000 336.180,292.270 336.000,292.600 336.000 C 292.930 336.000,293.200 335.850,293.200 335.668 C 293.200 335.485,293.695 335.080,294.300 334.768 C 294.905 334.455,295.749 333.885,296.175 333.500 C 296.602 333.115,297.159 332.800,297.413 332.800 C 297.668 332.800,298.202 332.440,298.600 332.000 C 298.998 331.560,299.523 331.200,299.766 331.200 C 300.009 331.200,300.656 330.795,301.204 330.300 C 301.752 329.805,302.695 329.145,303.300 328.832 C 303.905 328.520,304.400 328.115,304.400 327.932 C 304.400 327.750,304.636 327.600,304.925 327.600 C 305.213 327.600,305.798 327.285,306.225 326.900 C 306.651 326.515,307.495 325.945,308.100 325.632 C 308.705 325.320,309.200 324.915,309.200 324.732 C 309.200 324.550,309.560 324.400,310.000 324.400 C 310.440 324.400,310.800 324.216,310.800 323.991 C 310.800 323.767,311.295 323.365,311.900 323.100 C 312.505 322.834,313.090 322.495,313.200 322.346 C 313.482 321.966,317.532 319.200,317.807 319.200 C 317.932 319.200,318.420 318.840,318.892 318.400 C 319.364 317.960,319.987 317.600,320.275 317.600 C 320.564 317.600,320.800 317.420,320.800 317.200 C 320.800 316.980,321.070 316.800,321.400 316.800 C 321.730 316.800,322.000 316.620,322.000 316.400 C 322.000 316.180,322.270 316.000,322.600 316.000 C 322.930 316.000,323.200 315.850,323.200 315.668 C 323.200 315.485,323.695 315.080,324.300 314.768 C 324.905 314.455,325.749 313.885,326.175 313.500 C 326.602 313.115,327.159 312.800,327.413 312.800 C 327.668 312.800,328.202 312.440,328.600 312.000 C 328.998 311.560,329.476 311.200,329.661 311.200 C 329.959 311.200,333.884 308.559,334.400 308.011 C 334.510 307.894,335.095 307.544,335.700 307.232 C 336.305 306.920,336.800 306.515,336.800 306.332 C 336.800 306.150,337.120 306.000,337.512 306.000 C 337.903 306.000,338.483 305.640,338.800 305.200 C 339.117 304.760,339.607 304.400,339.888 304.400 C 340.170 304.400,340.760 304.040,341.200 303.600 C 341.640 303.160,342.270 302.800,342.600 302.800 C 342.930 302.800,343.200 302.617,343.200 302.394 C 343.200 302.170,343.830 301.687,344.600 301.319 C 345.370 300.952,346.000 300.413,346.000 300.120 C 346.000 299.828,323.680 277.270,296.400 249.992 C 269.120 222.714,246.800 200.224,246.800 200.016 C 246.800 199.807,263.450 182.987,283.800 162.638 C 304.150 142.289,320.800 125.359,320.800 125.016 C 320.800 124.278,197.441 0.800,196.705 0.800 C 196.427 0.801,173.746 23.253,146.303 50.694"/><path id="path3" fill="#48e7d7" fill-rule="evenodd" stroke="none" d="M145.586 49.992 L 95.600 99.983 95.600 102.168 C 95.600 103.370,95.760 104.452,95.956 104.573 C 96.395 104.844,96.925 102.225,96.624 101.276 C 96.395 100.553,195.368 1.135,196.576 0.875 C 197.298 0.719,320.800 124.139,320.800 125.016 C 320.800 125.359,304.150 142.289,283.800 162.638 C 263.450 182.987,246.800 199.807,246.800 200.016 C 246.800 200.224,269.120 222.714,296.400 249.992 C 323.680 277.270,346.000 299.828,346.000 300.120 C 346.000 300.413,345.370 300.952,344.600 301.319 C 343.830 301.687,343.200 302.170,343.200 302.394 C 343.200 302.617,342.930 302.800,342.600 302.800 C 342.270 302.800,341.640 303.160,341.200 303.600 C 340.760 304.040,340.170 304.400,339.888 304.400 C 339.607 304.400,339.117 304.760,338.800 305.200 C 338.483 305.640,337.903 306.000,337.512 306.000 C 337.120 306.000,336.800 306.150,336.800 306.332 C 336.800 306.515,336.305 306.920,335.700 307.232 C 335.095 307.544,334.510 307.894,334.400 308.011 C 333.884 308.559,329.959 311.200,329.661 311.200 C 329.476 311.200,328.998 311.560,328.600 312.000 C 328.202 312.440,327.668 312.800,327.413 312.800 C 327.159 312.800,326.602 313.115,326.175 313.500 C 325.749 313.885,324.905 314.455,324.300 314.768 C 323.695 315.080,323.200 315.485,323.200 315.668 C 323.200 315.850,322.930 316.000,322.600 316.000 C 322.270 316.000,322.000 316.180,322.000 316.400 C 322.000 316.620,321.730 316.800,321.400 316.800 C 321.070 316.800,320.800 316.980,320.800 317.200 C 320.800 317.420,320.564 317.600,320.275 317.600 C 319.987 317.600,319.364 317.960,318.892 318.400 C 318.420 318.840,317.932 319.200,317.807 319.200 C 317.532 319.200,313.482 321.966,313.200 322.346 C 313.090 322.495,312.505 322.834,311.900 323.100 C 311.295 323.365,310.800 323.767,310.800 323.991 C 310.800 324.216,310.440 324.400,310.000 324.400 C 309.560 324.400,309.200 324.550,309.200 324.732 C 309.200 324.915,308.705 325.320,308.100 325.632 C 307.495 325.945,306.651 326.515,306.225 326.900 C 305.798 327.285,305.213 327.600,304.925 327.600 C 304.636 327.600,304.400 327.750,304.400 327.932 C 304.400 328.115,303.905 328.520,303.300 328.832 C 302.695 329.145,301.752 329.805,301.204 330.300 C 300.656 330.795,300.009 331.200,299.766 331.200 C 299.523 331.200,298.998 331.560,298.600 332.000 C 298.202 332.440,297.668 332.800,297.413 332.800 C 297.159 332.800,296.602 333.115,296.175 333.500 C 295.749 333.885,294.905 334.455,294.300 334.768 C 293.695 335.080,293.200 335.485,293.200 335.668 C 293.200 335.850,292.930 336.000,292.600 336.000 C 292.270 336.000,292.000 336.180,292.000 336.400 C 292.000 336.620,291.730 336.800,291.400 336.800 C 291.070 336.800,290.800 336.980,290.800 337.200 C 290.800 337.420,290.564 337.600,290.275 337.600 C 289.987 337.600,289.364 337.960,288.892 338.400 C 288.420 338.840,287.933 339.200,287.811 339.200 C 287.346 339.200,283.200 342.129,283.200 342.457 C 283.200 342.645,282.930 342.800,282.600 342.800 C 282.270 342.800,281.640 343.160,281.200 343.600 C 280.760 344.040,280.130 344.400,279.800 344.400 C 279.470 344.400,279.200 344.550,279.200 344.732 C 279.200 344.915,278.705 345.320,278.100 345.632 C 277.495 345.945,276.651 346.515,276.225 346.900 C 275.798 347.285,275.213 347.600,274.925 347.600 C 274.636 347.600,274.400 347.750,274.400 347.932 C 274.400 348.115,273.905 348.520,273.300 348.832 C 272.695 349.144,272.110 349.507,272.000 349.640 C 271.778 349.907,268.945 351.794,267.035 352.945 C 266.356 353.355,265.710 353.805,265.600 353.946 C 265.490 354.086,264.905 354.456,264.300 354.768 C 263.695 355.080,263.200 355.485,263.200 355.668 C 263.200 355.850,262.964 356.000,262.675 356.000 C 262.387 356.000,261.802 356.315,261.375 356.700 C 260.949 357.085,260.105 357.655,259.500 357.968 C 258.895 358.280,258.400 358.685,258.400 358.868 C 258.400 359.050,258.217 359.200,257.994 359.200 C 257.400 359.200,253.200 362.053,253.200 362.457 C 253.200 362.645,252.930 362.800,252.600 362.800 C 252.270 362.800,251.640 363.160,251.200 363.600 C 250.760 364.040,250.130 364.400,249.800 364.400 C 249.470 364.400,249.200 364.550,249.200 364.732 C 249.200 364.915,248.705 365.320,248.100 365.632 C 247.495 365.945,246.651 366.515,246.225 366.900 C 245.798 367.285,245.213 367.600,244.925 367.600 C 244.636 367.600,244.400 367.750,244.400 367.932 C 244.400 368.115,243.905 368.520,243.300 368.832 C 242.695 369.144,242.110 369.507,242.000 369.640 C 241.778 369.907,238.945 371.794,237.035 372.945 C 236.356 373.355,235.710 373.805,235.600 373.946 C 235.490 374.086,234.905 374.456,234.300 374.768 C 233.695 375.080,233.200 375.485,233.200 375.668 C 233.200 375.850,232.964 376.000,232.675 376.000 C 232.387 376.000,231.802 376.315,231.375 376.700 C 230.949 377.085,230.105 377.655,229.500 377.968 C 228.895 378.280,228.400 378.685,228.400 378.868 C 228.400 379.050,228.222 379.200,228.005 379.200 C 227.447 379.200,223.200 382.103,223.200 382.485 C 223.200 382.658,222.964 382.800,222.675 382.800 C 222.387 382.800,221.764 383.160,221.292 383.600 C 220.820 384.040,220.196 384.400,219.905 384.400 C 219.614 384.400,219.117 384.760,218.800 385.200 C 218.483 385.640,217.903 386.000,217.512 386.000 C 217.120 386.000,216.800 386.150,216.800 386.332 C 216.800 386.515,216.305 386.920,215.700 387.232 C 215.095 387.545,214.251 388.115,213.825 388.500 C 213.398 388.885,212.828 389.200,212.558 389.200 C 212.288 389.200,212.007 389.353,211.933 389.540 C 211.813 389.847,209.445 391.518,207.546 392.636 C 207.139 392.875,206.489 393.333,206.103 393.653 C 205.716 393.973,204.905 394.482,204.300 394.785 C 203.695 395.088,203.200 395.485,203.200 395.668 C 203.200 395.850,202.964 396.000,202.675 396.000 C 202.387 396.000,201.802 396.315,201.375 396.700 C 200.949 397.085,200.105 397.655,199.500 397.968 C 198.895 398.280,198.400 398.685,198.400 398.868 C 198.400 401.418,197.134 400.203,133.966 337.025 C 98.142 301.196,71.650 274.998,71.445 275.200 C 71.241 275.401,97.454 301.913,133.318 337.775 C 195.265 399.720,195.552 400.000,197.144 400.000 C 198.032 400.000,199.010 399.733,199.343 399.400 C 199.673 399.070,200.186 398.800,200.483 398.800 C 200.780 398.800,201.283 398.440,201.600 398.000 C 201.917 397.560,202.466 397.200,202.821 397.200 C 203.175 397.200,203.706 396.750,204.000 396.201 C 204.294 395.651,204.620 395.286,204.723 395.390 C 204.975 395.641,207.200 394.315,207.200 393.914 C 207.200 393.741,207.436 393.600,207.725 393.600 C 208.013 393.600,208.636 393.240,209.108 392.800 C 209.580 392.360,210.204 392.000,210.495 392.000 C 210.786 392.000,211.283 391.640,211.600 391.200 C 211.917 390.760,212.457 390.400,212.800 390.400 C 213.143 390.400,213.683 390.040,214.000 389.600 C 214.317 389.160,214.882 388.800,215.255 388.800 C 215.628 388.800,215.993 388.647,216.067 388.460 C 216.140 388.273,216.965 387.640,217.900 387.055 C 218.835 386.469,219.600 385.812,219.600 385.595 C 219.600 385.378,219.920 385.200,220.312 385.200 C 220.703 385.200,221.283 384.840,221.600 384.400 C 221.917 383.960,222.457 383.600,222.800 383.600 C 223.143 383.600,223.683 383.240,224.000 382.800 C 224.317 382.360,224.863 382.000,225.213 382.000 C 225.563 382.000,226.236 381.640,226.708 381.200 C 227.180 380.760,227.804 380.400,228.095 380.400 C 228.386 380.400,228.883 380.040,229.200 379.600 C 229.517 379.160,230.057 378.800,230.400 378.800 C 230.743 378.800,231.283 378.440,231.600 378.000 C 231.917 377.560,232.426 377.200,232.731 377.200 C 233.036 377.200,233.639 376.750,234.071 376.200 C 234.504 375.650,235.081 375.200,235.354 375.200 C 235.626 375.200,236.198 374.885,236.625 374.500 C 237.051 374.115,237.895 373.545,238.500 373.232 C 239.105 372.920,239.600 372.515,239.600 372.332 C 239.600 372.150,239.920 372.000,240.312 372.000 C 240.703 372.000,241.283 371.640,241.600 371.200 C 241.917 370.760,242.457 370.400,242.800 370.400 C 243.143 370.400,243.683 370.040,244.000 369.600 C 244.317 369.160,244.882 368.800,245.255 368.800 C 245.628 368.800,245.993 368.647,246.067 368.460 C 246.140 368.273,246.965 367.640,247.900 367.055 C 248.835 366.469,249.600 365.812,249.600 365.595 C 249.600 365.378,249.920 365.200,250.312 365.200 C 250.703 365.200,251.283 364.840,251.600 364.400 C 251.917 363.960,252.457 363.600,252.800 363.600 C 253.143 363.600,253.683 363.240,254.000 362.800 C 254.317 362.360,254.863 362.000,255.213 362.000 C 255.563 362.000,256.236 361.640,256.708 361.200 C 257.180 360.760,257.804 360.400,258.095 360.400 C 258.386 360.400,258.883 360.040,259.200 359.600 C 259.517 359.160,260.057 358.800,260.400 358.800 C 260.743 358.800,261.283 358.440,261.600 358.000 C 261.917 357.560,262.426 357.200,262.731 357.200 C 263.036 357.200,263.639 356.750,264.071 356.200 C 264.504 355.650,265.081 355.200,265.354 355.200 C 265.626 355.200,266.198 354.885,266.625 354.500 C 267.051 354.115,267.895 353.545,268.500 353.232 C 269.105 352.920,269.600 352.515,269.600 352.332 C 269.600 352.150,269.920 352.000,270.312 352.000 C 270.703 352.000,271.283 351.640,271.600 351.200 C 271.917 350.760,272.457 350.400,272.800 350.400 C 273.143 350.400,273.683 350.040,274.000 349.600 C 274.317 349.160,274.882 348.800,275.255 348.800 C 275.628 348.800,275.993 348.647,276.067 348.460 C 276.140 348.273,276.965 347.640,277.900 347.055 C 278.835 346.469,279.600 345.812,279.600 345.595 C 279.600 345.378,279.920 345.200,280.312 345.200 C 280.703 345.200,281.283 344.840,281.600 344.400 C 281.917 343.960,282.457 343.600,282.800 343.600 C 283.143 343.600,283.683 343.240,284.000 342.800 C 284.317 342.360,284.863 342.000,285.213 342.000 C 285.563 342.000,286.236 341.640,286.708 341.200 C 287.180 340.760,287.804 340.400,288.095 340.400 C 288.386 340.400,288.883 340.040,289.200 339.600 C 289.517 339.160,290.057 338.800,290.400 338.800 C 290.743 338.800,291.283 338.440,291.600 338.000 C 291.917 337.560,292.426 337.200,292.731 337.200 C 293.036 337.200,293.639 336.750,294.071 336.200 C 294.504 335.650,295.081 335.200,295.354 335.200 C 295.626 335.200,296.198 334.885,296.625 334.500 C 297.051 334.115,297.895 333.545,298.500 333.232 C 299.105 332.920,299.600 332.515,299.600 332.332 C 299.600 332.150,299.920 332.000,300.312 332.000 C 300.703 332.000,301.283 331.640,301.600 331.200 C 301.917 330.760,302.457 330.400,302.800 330.400 C 303.143 330.400,303.683 330.040,304.000 329.600 C 304.317 329.160,304.882 328.800,305.255 328.800 C 305.628 328.800,305.993 328.647,306.067 328.460 C 306.140 328.273,306.965 327.640,307.900 327.055 C 308.835 326.469,309.600 325.812,309.600 325.595 C 309.600 325.378,309.920 325.200,310.312 325.200 C 310.703 325.200,311.283 324.840,311.600 324.400 C 311.917 323.960,312.457 323.600,312.800 323.600 C 313.143 323.600,313.683 323.240,314.000 322.800 C 314.317 322.360,314.863 322.000,315.213 322.000 C 315.563 322.000,316.236 321.640,316.708 321.200 C 317.180 320.760,317.804 320.400,318.095 320.400 C 318.386 320.400,318.883 320.040,319.200 319.600 C 319.517 319.160,320.057 318.800,320.400 318.800 C 320.743 318.800,321.283 318.440,321.600 318.000 C 321.917 317.560,322.426 317.200,322.731 317.200 C 323.036 317.200,323.639 316.750,324.071 316.200 C 324.504 315.650,325.081 315.200,325.354 315.200 C 325.626 315.200,326.198 314.885,326.625 314.500 C 327.051 314.115,327.895 313.545,328.500 313.232 C 329.105 312.920,329.600 312.515,329.600 312.332 C 329.600 312.150,329.920 312.000,330.312 312.000 C 330.703 312.000,331.283 311.640,331.600 311.200 C 331.917 310.760,332.457 310.400,332.800 310.400 C 333.143 310.400,333.683 310.040,334.000 309.600 C 334.317 309.160,334.882 308.800,335.255 308.800 C 335.628 308.800,335.993 308.647,336.067 308.460 C 336.140 308.273,336.965 307.640,337.900 307.055 C 338.835 306.469,339.600 305.812,339.600 305.595 C 339.600 305.378,339.920 305.200,340.312 305.200 C 340.703 305.200,341.283 304.840,341.600 304.400 C 341.917 303.960,342.457 303.600,342.800 303.600 C 343.143 303.600,343.683 303.240,344.000 302.800 C 344.317 302.360,344.852 301.994,345.188 301.987 C 348.063 301.928,347.668 299.885,344.100 296.359 C 342.395 294.674,340.166 292.418,339.147 291.347 C 338.128 290.276,335.878 288.028,334.147 286.350 C 332.416 284.673,330.166 282.423,329.147 281.350 C 328.128 280.278,325.878 278.028,324.147 276.350 C 322.416 274.673,320.166 272.423,319.147 271.350 C 318.128 270.278,315.878 268.028,314.147 266.350 C 312.416 264.673,310.166 262.423,309.147 261.350 C 308.128 260.278,305.878 258.028,304.147 256.350 C 302.416 254.673,300.166 252.423,299.147 251.350 C 298.128 250.278,295.878 248.028,294.147 246.350 C 292.416 244.673,290.166 242.423,289.147 241.350 C 288.128 240.278,285.878 238.028,284.147 236.350 C 282.416 234.673,280.166 232.423,279.147 231.350 C 278.128 230.278,275.878 228.028,274.147 226.350 C 272.416 224.673,270.166 222.423,269.147 221.350 C 268.128 220.278,265.878 218.028,264.147 216.350 C 262.416 214.673,260.166 212.423,259.147 211.350 C 258.128 210.278,255.878 208.028,254.147 206.351 C 252.416 204.674,250.320 202.565,249.489 201.663 L 247.978 200.024 250.289 197.552 C 251.560 196.193,253.474 194.252,254.542 193.240 C 255.610 192.228,257.860 189.983,259.542 188.250 C 261.224 186.518,263.474 184.268,264.542 183.250 C 265.610 182.233,267.860 179.983,269.542 178.250 C 271.224 176.518,273.474 174.268,274.542 173.250 C 275.610 172.233,277.860 169.983,279.542 168.250 C 281.224 166.518,283.474 164.268,284.542 163.250 C 285.610 162.233,287.860 159.983,289.542 158.250 C 291.224 156.518,293.474 154.268,294.542 153.250 C 295.610 152.233,297.860 149.983,299.542 148.250 C 301.224 146.518,303.474 144.268,304.542 143.250 C 305.610 142.233,307.860 139.983,309.542 138.250 C 311.224 136.518,313.471 134.268,314.536 133.250 C 323.625 124.565,323.413 125.406,317.852 120.048 C 314.730 117.040,311.846 114.153,309.147 111.335 C 308.128 110.271,305.878 108.028,304.147 106.350 C 302.416 104.673,300.166 102.423,299.147 101.350 C 298.128 100.278,295.878 98.028,294.147 96.350 C 292.416 94.673,290.166 92.423,289.147 91.350 C 288.128 90.278,285.878 88.028,284.147 86.350 C 282.416 84.673,280.166 82.423,279.147 81.350 C 278.128 80.278,275.878 78.028,274.147 76.350 C 272.416 74.673,270.166 72.423,269.147 71.350 C 268.128 70.278,265.878 68.028,264.147 66.350 C 262.416 64.673,260.166 62.423,259.147 61.350 C 258.128 60.278,255.878 58.028,254.147 56.350 C 252.416 54.673,250.166 52.423,249.147 51.350 C 248.128 50.278,245.878 48.028,244.147 46.350 C 242.416 44.673,240.166 42.423,239.147 41.350 C 238.128 40.278,235.878 38.028,234.147 36.350 C 232.416 34.673,230.166 32.423,229.147 31.350 C 228.128 30.278,225.878 28.028,224.147 26.350 C 222.416 24.673,220.166 22.423,219.147 21.350 C 218.128 20.278,215.878 18.028,214.147 16.350 C 212.416 14.673,210.166 12.423,209.147 11.350 C 208.128 10.278,205.878 8.028,204.147 6.351 C 202.416 4.674,200.315 2.559,199.477 1.651 C 196.575 -1.496,201.357 -5.786,145.586 49.992 M94.800 108.000 C 94.800 109.333,94.978 110.400,95.200 110.400 C 95.422 110.400,95.600 109.333,95.600 108.000 C 95.600 106.667,95.422 105.600,95.200 105.600 C 94.978 105.600,94.800 106.667,94.800 108.000 M94.000 113.800 C 94.000 115.267,94.174 116.400,94.400 116.400 C 94.626 116.400,94.800 115.267,94.800 113.800 C 94.800 112.333,94.626 111.200,94.400 111.200 C 94.174 111.200,94.000 112.333,94.000 113.800 M93.016 118.500 C 92.894 119.215,92.873 120.160,92.967 120.600 C 93.061 121.040,93.153 121.535,93.169 121.700 C 93.321 123.181,94.000 121.463,94.000 119.600 C 94.000 117.037,93.381 116.345,93.016 118.500 M92.000 125.633 C 92.000 128.865,92.948 128.725,93.120 125.468 C 93.217 123.635,93.121 123.200,92.620 123.200 C 92.128 123.200,92.000 123.702,92.000 125.633 M91.394 129.680 C 91.043 131.079,91.320 133.819,91.800 133.705 C 92.339 133.578,92.550 129.590,92.045 129.085 C 91.777 128.817,91.561 129.015,91.394 129.680 M90.673 135.060 C 90.523 135.210,90.400 136.308,90.400 137.500 C 90.400 140.287,91.343 140.213,91.524 137.413 C 91.643 135.568,91.251 134.483,90.673 135.060 M89.873 140.661 C 89.245 141.288,89.565 145.727,90.200 145.200 C 90.558 144.903,90.798 144.037,90.794 143.051 C 90.788 141.337,90.345 140.188,89.873 140.661 M89.078 146.655 C 88.925 146.808,88.800 147.908,88.800 149.100 C 88.800 151.727,89.731 151.871,89.923 149.274 C 90.047 147.585,89.584 146.149,89.078 146.655 M88.000 154.576 C 88.000 156.740,88.496 157.769,88.958 156.565 C 89.270 155.753,89.269 153.845,88.957 153.033 C 88.458 151.732,88.000 152.471,88.000 154.576 M87.487 158.246 C 87.070 158.663,87.134 162.800,87.557 162.800 C 87.754 162.800,88.024 162.515,88.157 162.167 C 88.673 160.822,88.124 157.609,87.487 158.246 M86.400 166.400 C 86.400 168.865,86.914 169.594,87.370 167.776 C 87.676 166.557,87.260 164.000,86.755 164.000 C 86.560 164.000,86.400 165.080,86.400 166.400 M85.891 169.842 C 85.470 170.263,85.533 174.311,85.965 174.578 C 86.481 174.897,86.873 172.022,86.497 170.675 C 86.324 170.057,86.052 169.682,85.891 169.842 M84.800 178.000 C 84.800 179.333,84.978 180.400,85.200 180.400 C 85.422 180.400,85.600 179.333,85.600 178.000 C 85.600 176.667,85.422 175.600,85.200 175.600 C 84.978 175.600,84.800 176.667,84.800 178.000 M84.000 183.800 C 84.000 185.267,84.174 186.400,84.400 186.400 C 84.626 186.400,84.800 185.267,84.800 183.800 C 84.800 182.333,84.626 181.200,84.400 181.200 C 84.174 181.200,84.000 182.333,84.000 183.800 M83.057 188.300 C 82.944 188.905,82.915 189.850,82.992 190.400 C 83.070 190.950,83.148 191.535,83.167 191.700 C 83.329 193.161,84.000 191.471,84.000 189.600 C 84.000 187.134,83.425 186.341,83.057 188.300 M82.000 195.633 C 82.000 198.865,82.948 198.725,83.120 195.468 C 83.217 193.635,83.121 193.200,82.620 193.200 C 82.128 193.200,82.000 193.702,82.000 195.633 M81.394 199.680 C 81.043 201.079,81.320 203.819,81.800 203.705 C 82.339 203.578,82.550 199.590,82.045 199.085 C 81.777 198.817,81.561 199.015,81.394 199.680 M80.673 205.060 C 80.523 205.210,80.400 206.308,80.400 207.500 C 80.400 210.287,81.343 210.213,81.524 207.413 C 81.643 205.568,81.251 204.483,80.673 205.060 M79.873 210.661 C 79.245 211.288,79.565 215.727,80.200 215.200 C 80.558 214.903,80.798 214.037,80.794 213.051 C 80.788 211.337,80.345 210.188,79.873 210.661 M79.085 216.649 C 78.554 217.179,78.753 221.282,79.300 221.102 C 79.575 221.012,79.854 220.316,79.919 219.555 C 80.051 218.023,79.529 216.205,79.085 216.649 M78.000 224.576 C 78.000 226.740,78.496 227.769,78.958 226.565 C 79.270 225.753,79.269 223.845,78.957 223.033 C 78.458 221.732,78.000 222.471,78.000 224.576 M77.487 228.246 C 77.070 228.663,77.134 232.800,77.557 232.800 C 77.754 232.800,78.024 232.515,78.157 232.167 C 78.673 230.822,78.124 227.609,77.487 228.246 M76.400 236.400 C 76.400 238.865,76.914 239.594,77.370 237.776 C 77.676 236.557,77.260 234.000,76.755 234.000 C 76.560 234.000,76.400 235.080,76.400 236.400 M75.891 239.842 C 75.470 240.263,75.533 244.311,75.965 244.578 C 76.481 244.897,76.873 242.022,76.497 240.675 C 76.324 240.057,76.052 239.682,75.891 239.842 M74.800 248.000 C 74.800 250.530,75.411 251.315,75.656 249.100 C 75.855 247.301,75.621 245.600,75.173 245.600 C 74.968 245.600,74.800 246.680,74.800 248.000 M74.267 251.467 C 73.838 251.895,73.960 256.400,74.400 256.400 C 74.626 256.400,74.800 255.267,74.800 253.800 C 74.800 251.182,74.754 250.980,74.267 251.467 M73.133 257.900 C 72.894 260.404,73.034 262.000,73.494 262.000 C 73.846 262.000,74.000 261.267,74.000 259.600 C 74.000 257.465,73.305 256.102,73.133 257.900 M72.000 265.633 C 72.000 268.865,72.948 268.725,73.120 265.468 C 73.217 263.635,73.121 263.200,72.620 263.200 C 72.128 263.200,72.000 263.702,72.000 265.633 M71.394 269.680 C 71.043 271.079,71.320 273.819,71.800 273.705 C 72.339 273.578,72.550 269.590,72.045 269.085 C 71.777 268.817,71.561 269.015,71.394 269.680"/><path id="path4" fill="#0ff" fill-rule="evenodd" stroke="none"/></g></svg>