<?xml version="1.0" standalone="no"?>
<!DOCTYPE svg PUBLIC "-//W3C//DTD SVG 20010904//EN"
 "http://www.w3.org/TR/2001/REC-SVG-20010904/DTD/svg10.dtd">
<svg version="1.0" xmlns="http://www.w3.org/2000/svg"
 width="1200.000000pt" height="1200.000000pt" viewBox="0 0 1200.000000 1200.000000"
 preserveAspectRatio="xMidYMid meet">
<metadata>
Created by potrace 1.15, written by Peter Selinger 2001-2017
</metadata>
<g transform="translate(0.000000,1200.000000) scale(0.100000,-0.100000)"
fill="#000000" stroke="none">
<path d="M5675 11709 c-1118 -63 -2174 -445 -3083 -1116 -417 -307 -878 -769
-1188 -1188 -963 -1306 -1325 -2925 -1013 -4525 158 -809 515 -1612 1017
-2290 351 -473 825 -934 1312 -1276 1520 -1067 3503 -1326 5249 -684 1078 396
2018 1113 2688 2050 969 1355 1294 3068 893 4705 -174 708 -506 1411 -952
2018 -308 417 -778 888 -1193 1193 -1088 800 -2390 1189 -3730 1113z m646
-1239 c960 -75 1817 -422 2559 -1039 218 -181 515 -493 693 -727 l47 -62 -302
-266 c-166 -146 -305 -266 -309 -266 -3 0 -39 43 -78 95 -503 669 -1245 1160
-2046 1355 -308 75 -560 104 -895 103 -465 0 -846 -69 -1275 -228 -958 -356
-1748 -1127 -2120 -2069 l-47 -119 2350 -2350 2349 -2349 119 47 c610 243
1161 666 1566 1201 210 278 391 612 520 958 30 83 108 344 108 364 0 9 -243
12 -970 12 l-970 0 0 435 0 435 1430 0 1430 0 0 -94 c0 -331 -68 -777 -175
-1150 -320 -1111 -1073 -2067 -2084 -2646 -342 -196 -679 -335 -1071 -441
l-145 -39 -2687 2687 -2688 2688 30 112 c303 1156 1021 2112 2056 2738 138 84
472 249 629 310 428 169 934 283 1365 308 136 8 488 6 611 -3z m-428 -8948
c-51 -7 -356 19 -531 44 -702 100 -1351 358 -1939 771 -913 640 -1565 1619
-1798 2700 -58 269 -105 643 -105 840 l0 48 2200 -2200 c1995 -1995 2198
-2200 2173 -2203z"/>
</g>
</svg>
