<?xml version="1.0" standalone="no"?>
<!DOCTYPE svg PUBLIC "-//W3C//DTD SVG 20010904//EN"
 "http://www.w3.org/TR/2001/REC-SVG-20010904/DTD/svg10.dtd">
<svg version="1.0" xmlns="http://www.w3.org/2000/svg"
 width="224.000000pt" height="144.000000pt" viewBox="0 0 224.000000 144.000000"
 preserveAspectRatio="xMidYMid meet">

<g transform="translate(0.000000,144.000000) scale(0.100000,-0.100000)"
fill="#000000" stroke="none">
<path d="M1484 1163 c-56 -71 -145 -188 -199 -260 -54 -73 -100 -133 -104
-133 -3 1 -44 55 -91 120 -67 95 -89 120 -108 120 -27 0 -39 21 111 -185 l65
-90 -21 -30 c-12 -16 -58 -81 -104 -143 -46 -62 -83 -114 -83 -117 0 -3 9 -5
20 -5 13 0 44 33 97 107 43 58 87 117 98 130 l20 24 94 -130 c77 -107 98 -131
119 -131 18 0 22 3 14 12 -5 7 -53 73 -106 146 l-97 134 17 26 c10 15 92 135
184 267 179 258 183 265 178 265 -2 0 -49 -57 -104 -127z"/>
<path d="M60 725 c0 -278 0 -285 20 -285 19 0 20 7 20 261 l0 262 180 -262
c196 -285 447 -627 405 -551 -5 8 -137 205 -293 438 -244 363 -287 422 -308
422 l-24 0 0 -285z"/>
<path d="M540 725 l0 -285 195 0 c167 0 195 2 195 15 0 13 -26 15 -175 15
l-175 0 0 125 0 125 165 0 c140 0 165 2 165 15 0 13 -25 15 -165 15 l-165 0 0
115 0 115 175 0 c149 0 175 2 175 15 0 13 -28 15 -195 15 l-195 0 0 -285z"/>
<path d="M1430 995 c0 -12 18 -15 100 -15 l100 0 0 -270 c0 -263 0 -270 20
-270 20 0 20 7 20 270 l0 270 100 0 c82 0 100 3 100 15 0 13 -31 15 -220 15
-189 0 -220 -2 -220 -15z"/>
<path d="M1987 593 c-4 -3 -7 -32 -7 -64 0 -58 -12 -81 -33 -60 -6 6 -17 11
-24 11 -11 0 -11 -5 -3 -20 12 -23 59 -27 78 -8 7 7 12 40 12 80 0 63 -6 79
-23 61z"/>
<path d="M2068 589 c-21 -12 -24 -52 -5 -67 6 -6 24 -13 40 -17 15 -4 27 -14
27 -21 0 -21 -29 -29 -51 -16 -29 19 -41 15 -29 -8 8 -15 21 -20 48 -20 44 0
62 14 62 47 0 19 -10 28 -46 43 -25 11 -42 24 -39 30 8 13 55 13 55 0 0 -5 7
-10 15 -10 20 0 19 13 -3 33 -21 19 -49 21 -74 6z"/>
<path d="M1860 455 c0 -8 7 -15 15 -15 8 0 15 7 15 15 0 8 -7 15 -15 15 -8 0
-15 -7 -15 -15z"/>
</g>
</svg>
